<mxfile host="app.diagrams.net" modified="2022-05-20T16:53:23.704Z" agent="5.0 (Macintosh; Intel Mac OS X 10_15_7) AppleWebKit/537.36 (KHTML, like Gecko) Chrome/101.0.4951.64 Safari/537.36" etag="bG3dGFGt5Y97dHcTb55a" version="18.0.6" type="github">
  <diagram id="Y3vReteuG-_UAJxLE3-L" name="Page-1">
    <mxGraphModel dx="815" dy="571" grid="1" gridSize="10" guides="1" tooltips="1" connect="1" arrows="1" fold="1" page="1" pageScale="1" pageWidth="827" pageHeight="1169" math="0" shadow="0">
      <root>
        <mxCell id="0" />
        <mxCell id="1" parent="0" />
        <mxCell id="GVlZAv8B5-ui3CyCfHK--1" value="&lt;span style=&quot;caret-color: rgb(51, 51, 51); color: rgb(51, 51, 51); font-family: AmazonEmber, &amp;quot;Helvetica Neue&amp;quot;, Helvetica, Arial, sans-serif; text-size-adjust: auto;&quot;&gt;&lt;font style=&quot;font-size: 59px;&quot;&gt;m6a.24xlarge&lt;/font&gt;&lt;/span&gt;" style="text;html=1;strokeColor=none;fillColor=none;align=center;verticalAlign=middle;whiteSpace=wrap;rounded=0;" vertex="1" parent="1">
          <mxGeometry x="310" y="238" width="260" height="70" as="geometry" />
        </mxCell>
        <mxCell id="GVlZAv8B5-ui3CyCfHK--2" value="" style="shape=curlyBracket;whiteSpace=wrap;html=1;rounded=1;fontSize=43;rotation=-90;size=0.5;" vertex="1" parent="1">
          <mxGeometry x="271.01" y="288.66999999999996" width="31.53" height="44.19" as="geometry" />
        </mxCell>
        <mxCell id="GVlZAv8B5-ui3CyCfHK--4" value="" style="shape=curlyBracket;whiteSpace=wrap;html=1;rounded=1;fontSize=43;rotation=-90;size=0.5;direction=west;" vertex="1" parent="1">
          <mxGeometry x="320.16999999999996" y="231.09" width="16.5" height="34.31" as="geometry" />
        </mxCell>
        <mxCell id="GVlZAv8B5-ui3CyCfHK--5" value="&lt;font style=&quot;font-size: 13px;&quot;&gt;Instance&lt;br&gt;generation&lt;br&gt;&lt;/font&gt;" style="text;html=1;align=center;verticalAlign=middle;resizable=0;points=[];autosize=1;strokeColor=none;fillColor=none;fontSize=13;" vertex="1" parent="1">
          <mxGeometry x="311" y="202" width="80" height="40" as="geometry" />
        </mxCell>
        <mxCell id="GVlZAv8B5-ui3CyCfHK--6" value="" style="shape=curlyBracket;whiteSpace=wrap;html=1;rounded=1;fontSize=43;rotation=-90;size=0.5;" vertex="1" parent="1">
          <mxGeometry x="323.63" y="322.38" width="79.75" height="30" as="geometry" />
        </mxCell>
        <mxCell id="GVlZAv8B5-ui3CyCfHK--8" value="Aditional Capability" style="swimlane;fontStyle=0;childLayout=stackLayout;horizontal=1;startSize=26;fillColor=none;horizontalStack=0;resizeParent=1;resizeParentMax=0;resizeLast=0;collapsible=1;marginBottom=0;fontSize=13;" vertex="1" parent="1">
          <mxGeometry x="336" y="372" width="190" height="220" as="geometry">
            <mxRectangle x="291" y="309" width="142" height="28" as="alternateBounds" />
          </mxGeometry>
        </mxCell>
        <mxCell id="GVlZAv8B5-ui3CyCfHK--9" value="a  for AMD" style="text;strokeColor=none;fillColor=none;align=left;verticalAlign=top;spacingLeft=4;spacingRight=4;overflow=hidden;rotatable=0;points=[[0,0.5],[1,0.5]];portConstraint=eastwest;fontSize=13;" vertex="1" parent="GVlZAv8B5-ui3CyCfHK--8">
          <mxGeometry y="26" width="190" height="24" as="geometry" />
        </mxCell>
        <mxCell id="GVlZAv8B5-ui3CyCfHK--10" value="b for Block Storage optimize" style="text;strokeColor=default;fillColor=none;align=left;verticalAlign=top;spacingLeft=4;spacingRight=4;overflow=hidden;rotatable=0;points=[[0,0.5],[1,0.5]];portConstraint=eastwest;fontSize=13;" vertex="1" parent="GVlZAv8B5-ui3CyCfHK--8">
          <mxGeometry y="50" width="190" height="30" as="geometry" />
        </mxCell>
        <mxCell id="GVlZAv8B5-ui3CyCfHK--11" value="e for extra capacity&#xa;(storage or RAM)" style="text;strokeColor=default;fillColor=none;align=left;verticalAlign=top;spacingLeft=4;spacingRight=4;overflow=hidden;rotatable=0;points=[[0,0.5],[1,0.5]];portConstraint=eastwest;fontSize=13;" vertex="1" parent="GVlZAv8B5-ui3CyCfHK--8">
          <mxGeometry y="80" width="190" height="42" as="geometry" />
        </mxCell>
        <mxCell id="GVlZAv8B5-ui3CyCfHK--12" value="n for networking optimized" style="text;strokeColor=none;fillColor=none;align=left;verticalAlign=top;spacingLeft=4;spacingRight=4;overflow=hidden;rotatable=0;points=[[0,0.5],[1,0.5]];portConstraint=eastwest;fontSize=13;" vertex="1" parent="GVlZAv8B5-ui3CyCfHK--8">
          <mxGeometry y="122" width="190" height="28" as="geometry" />
        </mxCell>
        <mxCell id="GVlZAv8B5-ui3CyCfHK--13" value="d for directly-attached insttance &#xa;storage " style="text;strokeColor=default;fillColor=none;align=left;verticalAlign=top;spacingLeft=4;spacingRight=4;overflow=hidden;rotatable=0;points=[[0,0.5],[1,0.5]];portConstraint=eastwest;fontSize=13;" vertex="1" parent="GVlZAv8B5-ui3CyCfHK--8">
          <mxGeometry y="150" width="190" height="42" as="geometry" />
        </mxCell>
        <mxCell id="GVlZAv8B5-ui3CyCfHK--14" value="g for graviton(AWS) processor" style="text;strokeColor=none;fillColor=none;align=left;verticalAlign=top;spacingLeft=4;spacingRight=4;overflow=hidden;rotatable=0;points=[[0,0.5],[1,0.5]];portConstraint=eastwest;fontSize=13;" vertex="1" parent="GVlZAv8B5-ui3CyCfHK--8">
          <mxGeometry y="192" width="190" height="28" as="geometry" />
        </mxCell>
        <mxCell id="GVlZAv8B5-ui3CyCfHK--15" value="" style="shape=curlyBracket;whiteSpace=wrap;html=1;rounded=1;fontSize=43;rotation=-90;size=0.5;direction=west;" vertex="1" parent="1">
          <mxGeometry x="500.13" y="129.76" width="16.5" height="231.37" as="geometry" />
        </mxCell>
        <mxCell id="GVlZAv8B5-ui3CyCfHK--16" value="&lt;font style=&quot;font-size: 13px;&quot;&gt;Instance&lt;br&gt;size&lt;br&gt;&lt;/font&gt;" style="text;html=1;align=center;verticalAlign=middle;resizable=0;points=[];autosize=1;strokeColor=none;fillColor=none;fontSize=13;" vertex="1" parent="1">
          <mxGeometry x="477.63" y="201" width="60" height="40" as="geometry" />
        </mxCell>
        <mxCell id="GVlZAv8B5-ui3CyCfHK--22" value="&lt;font style=&quot;font-size: 13px;&quot;&gt;Amount of:&lt;br&gt;&lt;br&gt;CPU&lt;br&gt;Memory&lt;br&gt;Network performance&lt;br&gt;&lt;/font&gt;" style="text;html=1;align=left;verticalAlign=middle;resizable=0;points=[];autosize=1;strokeColor=default;fillColor=none;fontSize=13;" vertex="1" parent="1">
          <mxGeometry x="601" y="148" width="140" height="90" as="geometry" />
        </mxCell>
        <mxCell id="GVlZAv8B5-ui3CyCfHK--24" value="" style="endArrow=classic;html=1;rounded=0;fontSize=59;" edge="1" parent="1">
          <mxGeometry width="50" height="50" relative="1" as="geometry">
            <mxPoint x="537" y="215" as="sourcePoint" />
            <mxPoint x="597" y="215" as="targetPoint" />
          </mxGeometry>
        </mxCell>
        <mxCell id="GVlZAv8B5-ui3CyCfHK--26" value="Instance Family" style="swimlane;fontStyle=0;childLayout=stackLayout;horizontal=1;startSize=26;fillColor=none;horizontalStack=0;resizeParent=1;resizeParentMax=0;resizeLast=0;collapsible=1;marginBottom=0;fontSize=13;" vertex="1" parent="1">
          <mxGeometry x="181.63" y="324.38" width="130" height="132" as="geometry">
            <mxRectangle x="136.63" y="261.38" width="142" height="28" as="alternateBounds" />
          </mxGeometry>
        </mxCell>
        <mxCell id="GVlZAv8B5-ui3CyCfHK--27" value="General Purpose" style="text;strokeColor=none;fillColor=none;align=left;verticalAlign=top;spacingLeft=4;spacingRight=4;overflow=hidden;rotatable=0;points=[[0,0.5],[1,0.5]];portConstraint=eastwest;fontSize=13;" vertex="1" parent="GVlZAv8B5-ui3CyCfHK--26">
          <mxGeometry y="26" width="130" height="24" as="geometry" />
        </mxCell>
        <mxCell id="GVlZAv8B5-ui3CyCfHK--28" value="Compute Optimized " style="text;strokeColor=none;fillColor=none;align=left;verticalAlign=top;spacingLeft=4;spacingRight=4;overflow=hidden;rotatable=0;points=[[0,0.5],[1,0.5]];portConstraint=eastwest;fontSize=13;" vertex="1" parent="GVlZAv8B5-ui3CyCfHK--26">
          <mxGeometry y="50" width="130" height="20" as="geometry" />
        </mxCell>
        <mxCell id="GVlZAv8B5-ui3CyCfHK--29" value="Memory Optimized" style="text;strokeColor=none;fillColor=none;align=left;verticalAlign=top;spacingLeft=4;spacingRight=4;overflow=hidden;rotatable=0;points=[[0,0.5],[1,0.5]];portConstraint=eastwest;fontSize=13;" vertex="1" parent="GVlZAv8B5-ui3CyCfHK--26">
          <mxGeometry y="70" width="130" height="20" as="geometry" />
        </mxCell>
        <mxCell id="GVlZAv8B5-ui3CyCfHK--30" value="Storage Optimized&#xa;" style="text;strokeColor=none;fillColor=none;align=left;verticalAlign=top;spacingLeft=4;spacingRight=4;overflow=hidden;rotatable=0;points=[[0,0.5],[1,0.5]];portConstraint=eastwest;fontSize=13;" vertex="1" parent="GVlZAv8B5-ui3CyCfHK--26">
          <mxGeometry y="90" width="130" height="20" as="geometry" />
        </mxCell>
        <mxCell id="GVlZAv8B5-ui3CyCfHK--31" value="Acelerate Compute" style="text;strokeColor=none;fillColor=none;align=left;verticalAlign=top;spacingLeft=4;spacingRight=4;overflow=hidden;rotatable=0;points=[[0,0.5],[1,0.5]];portConstraint=eastwest;fontSize=13;" vertex="1" parent="GVlZAv8B5-ui3CyCfHK--26">
          <mxGeometry y="110" width="130" height="22" as="geometry" />
        </mxCell>
        <mxCell id="GVlZAv8B5-ui3CyCfHK--34" value="" style="shape=curlyBracket;whiteSpace=wrap;html=1;rounded=1;shadow=0;sketch=0;fontSize=59;strokeColor=default;fillColor=default;direction=south;" vertex="1" parent="1">
          <mxGeometry x="235" y="110" width="525" height="29" as="geometry" />
        </mxCell>
        <mxCell id="GVlZAv8B5-ui3CyCfHK--36" value="&lt;font style=&quot;font-size: 17px;&quot;&gt;Instance Type&lt;br&gt;&lt;/font&gt;" style="text;html=1;align=center;verticalAlign=middle;resizable=0;points=[];autosize=1;strokeColor=none;fillColor=none;fontSize=13;" vertex="1" parent="1">
          <mxGeometry x="435" y="60" width="120" height="20" as="geometry" />
        </mxCell>
        <mxCell id="GVlZAv8B5-ui3CyCfHK--37" value="&lt;font style=&quot;font-size: 13px;&quot;&gt;This number &quot;&lt;b&gt;6&lt;/b&gt;&quot; represents the instance &lt;br&gt;generation. &lt;b&gt;6&lt;/b&gt; is the current generation&amp;nbsp;&lt;br&gt;which is always &lt;br&gt;better(in price, performance, cost-effective) &lt;br&gt;than previous&amp;nbsp;generation.&amp;nbsp;&lt;br&gt;&lt;br&gt;&lt;/font&gt;" style="text;html=1;align=left;verticalAlign=middle;resizable=0;points=[];autosize=1;strokeColor=default;fillColor=none;fontSize=13;" vertex="1" parent="1">
          <mxGeometry x="25" y="151" width="260" height="100" as="geometry" />
        </mxCell>
        <mxCell id="GVlZAv8B5-ui3CyCfHK--40" value="" style="endArrow=classic;html=1;rounded=0;fontSize=59;" edge="1" parent="1">
          <mxGeometry width="50" height="50" relative="1" as="geometry">
            <mxPoint x="318" y="218" as="sourcePoint" />
            <mxPoint x="288" y="218" as="targetPoint" />
          </mxGeometry>
        </mxCell>
      </root>
    </mxGraphModel>
  </diagram>
</mxfile>
